# xmcd
#
# Track frame offsets:
#	150
#	13130
#	26947
#	40538
#	54026
#	68636
#	82764
#	98264
#	111622
#	124330
#	136158
#	147604
#	160731
#	171699
#	185692
#	199458
#	214129
#	227105
#	240350
#	253961
#	267049
#	280825
#	294857
#	307571
#	319789
#
# Disc length: 4443 seconds
#
# Revision: 0
# Processed by: cddbd v1.5.2PL0 Copyright (c) Steve Scherf et al.
# Submitted via: audiograbber 1.83.01
#
DISCID=64115919
DTITLE=Sonny Boy Williamson I - Sonny Boy's Jump - R and B began here
DYEAR=2000
DGENRE=
TTITLE0=Sonny Boy's Jump
TTITLE1=Early in the Morning
TTITLE2=The Big Boat
TTITLE3=Stop Breaking Down
TTITLE4=You're an Old Lady
TTITLE5=Sonny Boy's Cold Chills
TTITLE6=Mean Old Highway
TTITLE7=Hoodoo Hoodoo
TTITLE8=Shake the Boogie
TTITLE9=Mellow Chick Swing
TTITLE10=Polly Put Your Kettle
TTITLE11=Lacey Belle
TTITLE12=Apple Tree Swing
TTITLE13=Wonderful Time
TTITLE14=Sugar Gal
TTITLE15=Willow Tree Blues
TTITLE16=Alcohol Blues
TTITLE17=Little Girl
TTITLE18=Blues About My Baby
TTITLE19=No Friend Blues
TTITLE20=I Love You for Myself
TTITLE21=Bring Another Half Pint
TTITLE22=Southern Dream
TTITLE23=Rub a Dub
TTITLE24=Better Cut That Out
EXTD=
EXTT0=
EXTT1=
EXTT2=
EXTT3=
EXTT4=
EXTT5=
EXTT6=
EXTT7=
EXTT8=
EXTT9=
EXTT10=
EXTT11=
EXTT12=
EXTT13=
EXTT14=
EXTT15=
EXTT16=
EXTT17=
EXTT18=
EXTT19=
EXTT20=
EXTT21=
EXTT22=
EXTT23=
EXTT24=
PLAYORDER=
